<?xml version="1.0" encoding="UTF-8"?><svg id="a" xmlns="http://www.w3.org/2000/svg" viewBox="0 0 199.57 168.87"><path d="M7.68,115.14c-4.24,0-7.68-3.44-7.68-7.68v-46.05c0-4.24,3.44-7.68,7.68-7.68s7.68,3.44,7.68,7.68v46.05c0,4.24-3.44,7.68-7.68,7.68Z"/><path d="M38.38,138.16c-4.24,0-7.68-3.44-7.68-7.68V38.38c0-4.24,3.44-7.68,7.68-7.68s7.68,3.44,7.68,7.68v92.11c0,4.24-3.44,7.68-7.68,7.68Z"/><path d="M69.08,115.14c-4.24,0-7.68-3.44-7.68-7.68v-46.05c0-4.24,3.44-7.68,7.68-7.68s7.68,3.44,7.68,7.68v46.05c0,4.24-3.44,7.68-7.68,7.68Z"/><path d="M99.78,145.84c-4.24,0-7.68-3.44-7.68-7.68V30.7c0-4.24,3.44-7.68,7.68-7.68s7.68,3.44,7.68,7.68v107.46c0,4.24-3.44,7.68-7.68,7.68Z"/><path d="M130.49,168.87c-4.24,0-7.68-3.44-7.68-7.68V7.68c0-4.24,3.44-7.68,7.68-7.68s7.68,3.44,7.68,7.68v153.51c0,4.24-3.44,7.68-7.68,7.68Z"/><path d="M161.19,138.16c-4.24,0-7.68-3.44-7.68-7.68V38.38c0-4.24,3.44-7.68,7.68-7.68s7.68,3.44,7.68,7.68v92.11c0,4.24-3.44,7.68-7.68,7.68Z"/><path d="M191.89,107.46c-4.24,0-7.68-3.44-7.68-7.68v-30.7c0-4.24,3.44-7.68,7.68-7.68s7.68,3.44,7.68,7.68v30.7c0,4.24-3.44,7.68-7.68,7.68Z"/></svg>